<?xml version="1.0" encoding="UTF-8"?>
<svg id="Layer_1" data-name="Layer 1" xmlns="http://www.w3.org/2000/svg" xmlns:xlink="http://www.w3.org/1999/xlink" viewBox="0 0 200 200">
  <defs>
    <linearGradient id="linear-gradient" x1="99.63" y1="197.26" x2="99.63" y2="2" gradientUnits="userSpaceOnUse">
      <stop offset="0" stop-color="#103685"/>
      <stop offset="1" stop-color="#006daa"/>
    </linearGradient>
  </defs>
  <circle cx="99.63" cy="99.63" r="97.63" style="fill: url(#linear-gradient);"/>
  <path d="M170.32,129.52c-.75-2.85-1.51-5.6-2.2-8.38-.84-3.36-1.59-6.75-2.43-10.11-1.21-4.85-2.48-9.69-3.7-14.53-1.11-4.38-2.16-8.77-3.28-13.15-1.01-3.95-2.15-7.86-3.1-11.82-.92-3.85-2.23-7.52-4.22-10.88-1.8-3.05-4.27-5.34-7.62-6.41-.53-.17-1.17-.05-1.66-.29-.3-.16-.52-.55-.37-.87.08-.17.24-.28.4-.37,5.75-3.42,12.66-.61,16.21,4.76,2.36,3.58,3.82,7.55,4.79,11.77.83,3.62,1.82,7.2,2.73,10.8.94,3.74,1.83,7.5,2.8,11.23,1.31,5.06,2.72,10.1,4.01,15.17,1.03,4.03,1.92,8.11,2.93,12.14.84,3.37,1.8,6.71,2.64,10.09.43,1.7.88,3.43,1.03,5.17.2,2.38-1.09,3.72-3.37,3.72-8.09.03-16.18.05-24.27.01-1.95,0-3.6-.92-4.74-2.58-.52-.76-.82-1.72-1.05-2.64-.85-3.29-1.61-6.61-2.44-9.91-.72-2.87-1.51-5.71-2.22-8.58-.69-2.79-1.3-5.61-1.99-8.4-.52-2.09-1.14-4.14-1.67-6.22-.54-2.12-1-4.27-1.54-6.39-.87-3.4-1.79-6.79-2.65-10.2-.7-2.75-1.32-5.52-2.01-8.27-1.02-4.04-2.11-8.07-4.25-11.64-.62-1.03-1.5-2.01-2.48-2.63-1.91-1.22-3.54-.81-5.18,1.18-1.19,1.44-2.19,3.21-2.79,5.01-1.43,4.3-2.58,8.71-3.83,13.07-.87,3.03-1.76,6.05-2.6,9.09-.84,3-1.63,6.02-2.45,9.02-.16.58-.33,1.16-.57,1.7-.65,1.46-1.91.86-2.44-.29-1.3-2.85-2.52-7.21-2.17-10.38.2-1.78.6-3.55,1.01-5.29.35-1.51.85-2.98,1.26-4.48.79-2.92,1.49-5.88,2.35-8.78.86-2.89,1.71-5.82,2.87-8.59,1.46-3.48,3.49-6.59,6.81-8.49,2.36-1.35,4.79-1.77,7.52-1.41,2.37.32,4.34,1.23,6.12,2.76,2.32,1.99,4.01,4.56,5.04,7.46,1.45,4.11,2.63,8.33,3.84,12.53.96,3.34,1.82,6.71,2.67,10.08.7,2.79,1.28,5.61,1.99,8.4.98,3.88,2.07,7.72,3.05,11.6.57,2.25,1.01,4.54,1.57,6.79.69,2.78,1.48,5.54,2.18,8.33.55,2.2,1.01,4.43,1.54,6.64.27,1.12.6,2.23.97,3.32.06.18.41.36.63.36,5.3,0,10.6,0,15.91-.02.11,0,.21-.09.43-.19Z" style="fill: #fff; stroke: #fff; stroke-miterlimit: 10; stroke-width: .7px;"/>
  <path d="M92.12,135.5c-.06.08-.15.15-.24.2-2.63,1.51-5.61,2.21-8.57,1.56-4.97-1.1-7.92-4.57-9.9-9.05-1.38-3.13-2.38-6.47-3.36-9.77-.91-3.05-1.56-6.19-2.36-9.27-1.17-4.49-2.43-8.96-3.56-13.46-1.03-4.07-1.89-8.2-2.93-12.27-1.12-4.41-2.42-8.76-3.52-13.17-.65-2.63-1.61-5.11-2.99-7.38-1.1-1.81-2.38-3.52-4.78-3.32-1.77.15-2.95,1.35-3.81,2.77-1.83,3.02-2.98,6.37-3.85,9.82-.69,2.7-1.51,5.37-2.19,8.07-.69,2.72-1.27,5.47-1.95,8.2-.87,3.48-1.81,6.94-2.68,10.43-.55,2.21-.99,4.46-1.54,6.67-.8,3.23-1.67,6.44-2.49,9.66-.57,2.25-1.11,4.51-1.67,6.76-.54,2.13-1.1,4.25-1.64,6.37-.1.41-.14.84-.24,1.44.84,0,1.53,0,2.21,0,4.53,0,9.06-.02,13.58,0,.89,0,1.22-.24,1.39-1.26.34-2.09.94-4.15,1.45-6.21.57-2.26,1.15-4.52,1.75-6.77.89-3.36,1.84-6.7,2.69-10.08.72-2.87,1.3-5.77,2.02-8.64.57-2.27,1.02-5.48,2.69-7.19.08-.08.18-.17.29-.16.11,0,.19.09.27.17,1.46,1.67,2.01,4.36,2.55,6.49,1.07,4.22.53,7.9-.4,12.08-.48,2.17-1.1,4.31-1.66,6.46-.53,2.05-1.07,4.09-1.59,6.14-.56,2.17-1.11,4.33-1.65,6.5-.53,2.14-.96,4.32-1.56,6.44-.52,1.84-3.25,3.83-5.2,3.84-8.28.02-16.56.02-24.85-.02-2.31-.01-3.65-2.29-3-4.65.77-2.78,1.34-5.61,2.03-8.41.49-1.98,1.03-3.95,1.54-5.92.4-1.54.8-3.08,1.2-4.62.59-2.27,1.2-4.53,1.76-6.81.53-2.13,1-4.27,1.52-6.4.52-2.14,1.05-4.27,1.59-6.4.55-2.17,1.1-4.35,1.65-6.52.56-2.17,1.13-4.32,1.68-6.49.54-2.17,1.01-4.36,1.59-6.52.83-3.08,1.58-6.2,2.64-9.19.94-2.64,2.06-5.25,3.44-7.66,1.96-3.41,4.72-5.61,8.67-6.47,5.74-1.25,11.02,2.66,13.53,7.33,2.01,3.73,3.4,7.7,4.36,11.87.75,3.27,1.76,6.48,2.59,9.73.57,2.24,1,4.52,1.54,6.77.54,2.24,1.17,4.46,1.73,6.7.54,2.17,1,4.36,1.55,6.52.52,2.05,1.12,4.08,1.66,6.13.53,2.01.97,4.05,1.54,6.05,1,3.52,2,7.05,3.11,10.53.98,3.08,2.52,5.85,4.75,8.14,2.25,2.3,4.51,2.86,7.4,3.78.11.03.23.08.28.19.04.1.01.19-.05.28Z" style="fill: #fff; stroke: #fff; stroke-miterlimit: 10; stroke-width: .7px;"/>
  <path d="M68.8,53.15c.05-.08.15-.13.23-.17.99-.47,1.97-1.02,3.03-1.28,5.96-1.44,10.66.8,13.99,6.15,2.18,3.49,3.57,7.3,4.58,11.3.66,2.59,1.45,5.14,2.13,7.72.55,2.09,1,4.2,1.53,6.3.87,3.45,1.78,6.89,2.64,10.34.56,2.26,1.04,4.54,1.59,6.8.48,1.98,1.03,3.94,1.53,5.91.57,2.25,1.11,4.51,1.68,6.76,1.22,4.83,2.28,9.72,5.1,13.9,1,1.48,2.29,2.44,4.12,2.35,1.65-.08,2.8-1.13,3.66-2.4,1.81-2.7,2.92-5.76,3.77-8.93.7-2.61,1.47-5.21,2.17-7.82.54-2.01.99-4.03,1.51-6.04.56-2.16,1.17-4.3,1.72-6.47.54-2.09,1.01-4.19,1.56-6.28.21-.8.47-1.62.86-2.34.56-1.05,1.53-1.09,2.02-.03,2,4.36,3.14,9.44,2.12,14.21-.63,2.93-1.38,5.84-2.19,8.73-1.3,4.61-2.5,9.27-4.11,13.76-.92,2.58-2.32,5.07-3.93,7.25-1.77,2.39-4.26,3.81-7.25,4.39-4.39.85-7.98-.61-10.98-3.74-2.29-2.39-3.88-5.38-4.89-8.63-1.1-3.53-2.17-7.08-3.12-10.66-.92-3.43-1.64-6.93-2.5-10.38-.84-3.37-1.78-6.72-2.63-10.09-.71-2.82-1.3-5.67-2.01-8.48-.68-2.7-1.46-5.37-2.17-8.07-.67-2.55-1.22-5.15-1.98-7.67-1.48-4.94-3.31-9.69-7.29-13.11-1.82-1.57-3.79-1.93-5.98-2.6-.16-.05-.32-.1-.43-.22s-.17-.32-.08-.46Z" style="fill: #fff; stroke: #fff; stroke-miterlimit: 10; stroke-width: .7px;"/>
</svg>